/* XPM */
static const char *pinata[] = {
/* columns rows colors chars-per-pixel */
"60 60 227 2 ",
"   c None",
".  c #361E00",
"X  c #3D2200",
"o  c #340E34",
"O  c #442600",
"+  c #4C2A00",
"@  c #472900",
"#  c #532E00",
"$  c #5C3500",
"%  c #553000",
"&  c #663400",
"*  c #175501",
"=  c #196D00",
"-  c #257104",
";  c #784800",
":  c #46682F",
">  c #312B69",
",  c #591959",
"<  c #401240",
"1  c #541E64",
"2  c #641D66",
"3  c #671B68",
"4  c #741C74",
"5  c #6D1F71",
"6  c #4A2B6B",
"7  c #682169",
"8  c #792479",
"9  c #6D2572",
"0  c #65695F",
"q  c #9C0407",
"w  c #A60407",
"e  c #B10C10",
"r  c #9B3000",
"t  c #A63A00",
"y  c #A32E00",
"u  c #BB1B33",
"i  c #CB181C",
"p  c #D5171D",
"a  c #CE2818",
"s  c #CF3314",
"d  c #CE1B23",
"f  c #C71A28",
"g  c #D31C23",
"h  c #DB1B24",
"j  c #D91B26",
"k  c #E21C27",
"l  c #D52129",
"z  c #DB232C",
"x  c #D22127",
"c  c #DB2831",
"v  c #CA2130",
"b  c #E3232E",
"n  c #E8252F",
"m  c #E32A34",
"M  c #E72B35",
"N  c #EB333D",
"B  c #E6323B",
"V  c #914F00",
"C  c #B95800",
"Z  c #B35001",
"A  c #956E00",
"S  c #B66900",
"D  c #B77300",
"F  c #A46300",
"G  c #CB4A09",
"H  c #D34A0A",
"J  c #C95C00",
"K  c #D45904",
"L  c #D64411",
"P  c #DF5A10",
"I  c #C76800",
"U  c #D96600",
"Y  c #C67800",
"T  c #D87700",
"R  c #E36C00",
"E  c #E86903",
"W  c #EB7200",
"Q  c #E47B00",
"!  c #EB7C00",
"~  c #E57600",
"^  c #F37400",
"/  c #F67B00",
"(  c #E96912",
")  c #F26000",
"_  c #E55F13",
"`  c #AD1E44",
"'  c #A62355",
"]  c #B22249",
"[  c #982977",
"{  c #962873",
"}  c #A32A71",
"|  c #841441",
" . c #D43352",
".. c #EE3A43",
"X. c #EB3642",
"o. c #F13B45",
"O. c #F43E49",
"+. c #F13641",
"@. c #F5414B",
"#. c #F8454F",
"$. c #FA4A54",
"%. c #FE525D",
"&. c #FF5763",
"*. c #298603",
"=. c #37970A",
"-. c #388C0E",
";. c #3DA10E",
":. c #479618",
">. c #729F0E",
",. c #43A315",
"<. c #46AA16",
"1. c #4BAB1A",
"2. c #4AA718",
"3. c #4EB21D",
"4. c #54B61C",
"5. c #4BAA19",
"6. c #69B01C",
"7. c #528C2F",
"8. c #54A626",
"9. c #57BA25",
"0. c #5DB430",
"q. c #64BA2B",
"w. c #6BB82E",
"e. c #5DC12A",
"r. c #65C429",
"t. c #6BC734",
"y. c #75C93B",
"u. c #7DDA39",
"i. c #75B646",
"p. c #6F8960",
"a. c #78C947",
"s. c #8EAD11",
"d. c #ABAD0A",
"f. c #BF8700",
"g. c #D88900",
"h. c #DC9400",
"j. c #C78800",
"k. c #EC8300",
"l. c #ED8B00",
"z. c #E48600",
"x. c #F28400",
"c. c #F28C00",
"v. c #F88300",
"b. c #ED9200",
"n. c #E39D00",
"m. c #E89A00",
"M. c #F49300",
"N. c #F69900",
"B. c #D2BA06",
"V. c #EBA300",
"C. c #EDAB00",
"Z. c #E5A400",
"A. c #F3A400",
"S. c #F3AC00",
"D. c #F9AC00",
"F. c #F9A500",
"G. c #F3B300",
"H. c #F9B300",
"J. c #FBBB00",
"K. c #F5BC00",
"L. c #EFBD02",
"P. c #FBC400",
"I. c #FBCC00",
"U. c #F6C500",
"Y. c #FBD200",
"T. c #FAD800",
"R. c #E9C103",
"E. c #85CA56",
"W. c #8BD659",
"Q. c #95DF5C",
"!. c #6F348A",
"~. c #025C94",
"^. c #005288",
"/. c #016699",
"(. c #006AA6",
"). c #0077A8",
"_. c #0178B5",
"`. c #1672B1",
"'. c #2D70B3",
"]. c #085CA3",
"[. c #5B5AAB",
"{. c #872988",
"}. c #922B8D",
"|. c #922D92",
" X c #982A9B",
".X c #933195",
"XX c #963299",
"oX c #9B339C",
"OX c #8F2C92",
"+X c #A5369C",
"@X c #A93491",
"#X c #9D36A1",
"$X c #A236A3",
"%X c #AC3AAC",
"&X c #A738A8",
"*X c #AF3BB1",
"=X c #B43DB4",
"-X c #B73DB8",
";X c #B13CAE",
":X c #B841B9",
">X c #A845B3",
",X c #9644AE",
"<X c #C343BD",
"1X c #B053C3",
"2X c #0388AA",
"3X c #0087BB",
"4X c #0197B5",
"5X c #00A5BD",
"6X c #008BC3",
"7X c #018BC8",
"8X c #0193CC",
"9X c #0095C6",
"0X c #009BD5",
"qX c #0094D1",
"wX c #1699D3",
"eX c #2988C9",
"rX c #00A7D8",
"tX c #00B7DE",
"yX c #08ACD1",
"uX c #24A3DA",
"iX c #00BBE3",
"pX c #00B5E3",
"aX c #4489CE",
"sX c #00C2DC",
"dX c #00C7E9",
"fX c #00D6EF",
"gX c #999698",
/* pixels */
"                                                                                                                        ",
"                                                                                                                        ",
"                                                                            +                                           ",
"                                            r.y.4.*.                        +                                           ",
"                                          9.u.r.3.=.                        +                                           ",
"                      7.E.5.            w.y.r.1.<.;.*.                      +                                           ",
"                      :.Q.y.=.        2.q.r.2.,.<.<.*.                      #                                           ",
"                      - y.W.r.=.      w.w.1.,.,.<.<.-.=                     %                                           ",
"                      = ,.t.t.4.;.8.w.q.1.,.<.<.,.,.*.                      #                                           ",
"                      * -.,.3.9.a.a.0.1.<.<.3.<.;.=.=                       # .                                         ",
"                      * - -.8.E.W.i.1.3.4.3.3.3.=.-                         % .                                         ",
"                        -.a.W.a.0.,.<.9.9.e.4.3.=.                          $ X                                         ",
"                      8.E.W.a.1.7.p.p.8.e.e.e.3.=.                          # X                                         ",
"                    i.a.t.9.1.,.: gXgX7.e.e.9.4.=.                          % X                                         ",
"                i.E.W.r.5.,.<.,.: 0 0 :.e.e.9.3.;.-                         $ X                                         ",
"              E.E.t.8.,.,.,.2.1.-.: 7.9.t.s.6.s.d.A                         $ @                                         ",
"            :.6.6.>.>.s.s.d.d.d.d.B.B.B.L.L.G.S.V.T                         $ @                                         ",
"          ; f.f.j.n.S.D.J.J.J.P.P.P.P.I.I.I.J.G.C.g.                        $ @                                         ",
"          V S Y g.V.H.H.J.J.U.U.I.I.I.I.I.I.P.H.C.h.                        & @                                         ",
"          ; F Y T A.D.J.J.I.I.Y.I.Y.Y.Y.Y.I.U.K.C.h.Y                       # @                                         ",
"            V F Y g.A.H.U.U.Y.I.Y.Y.T.T.Y.I.U.K.G.n.j.                    @ + @                           C             ",
"                V S Y h.C.U.I.I.Y.Y.Y.T.Y.U.U.G.S.m.g.                    +   X O                       Y T t           ",
"                        Y h.G.U.P.I.U.U.U.K.G.C.V.n.h.D                 + .     X                     S h.T r           ",
"                            Y Z.V.C.Z.C.C.C.S.C.Z.Z.h.g.S             + X       X X                 D n.N.U r           ",
"                              F D D f.g.Z.V.m.m.h.g.z.Q J             O           @               Y n.A.l.J y           ",
"                              r Z C I T T Q k.! Q W ! ! W K         #             + #         D T m.A.l.U J r           ",
"                              t I T T k.k.k.x.v.x.x.c.x.k.x.U I D A V D I C S Y g.; & T z.z.l.b.m.N.c.W J Z             ",
"                              Z k.l.b.M.b.k.M.M.M.c.M.c.c.c.l.x.l.A.H.C.V.b.k./ / F $ I M.c.v.v.v./ ^ R J t             ",
"                              J b.V.A.F.A.l.M.M.N.l.N.l.N.l.c.M.M.c.M.M.M.c./ ^ ) H & V ^ ^ ^ ^ / ^ W U J t             ",
"                              I V.A.D.F.F.l.c.c.N.M.b.b.M.b.l.l.M.l.x.x.v./ ^ / ^ ) Z J R W ^ R ^ ^ W R K t             ",
"                              I A.S.A.D.D.M.x.c.c.M.k.l.l.M.c.l.M.l.c.k./ / ^ ^ ^ ^ E E U R E U W W R R K t             ",
"                              I A.S.D.F.D.N.Q / k.x.k.l.k.c.l.l.M.c.k.k.! W W E ^ W R U U U K J K L s a a w             ",
"                              I V.D.D.A.A.N.Q ! ! W ~ ~ Q Q Q l.z.k.Q Q W U U K K K H s s s a p h h h h p w             ",
"                              G P ( ( ( ( ( P P H G G H H H L L L L L s s a a x g p h h h h k k k k k k p w             ",
"                              e c B ..@.@...B m c j z j z j z j z j b b b b b n b n m n n n n n n z b b p q             ",
"                              e B #.%.%.%.$.@.o.+.N X.X.N N N B N B +.X.N +.+.X.N +.N N N M N M m b b z i q             ",
"                              e B $.%.&.&.%.#.@.o.O.O.O.o.O.@.O.O...@.#.o.O.@.o...@.o...o.N +.B m m z l d w             ",
"                              e c $.%.%.&.&.$.O.o.o.O.O.o.#.@.@.@...O.O.o.o.O.....N +.B N N M m b c x x f w             ",
"                              w c $.$.&.&.%.#.X.+.N +.+.N X.X.o.B N B N N m B m c c m z m m z z z l g g i w             ",
"                                x O.#.$.$.#...B b c n M b c z M z m x c z z j z x d x x j z x d d v v ] ] |             ",
"                                i B B ....N m b j h k h k i d f g g p g h i x a d f u u ] ] ' ' } } +XoXXX5             ",
"                                '  . . .X. .c g d d d d d f u u u u u ` ` ' ' } { [ [ }..X.X.XXX#X$X&X%X$X4             ",
"                                {.&X+X+X+X@X@X} } { } { [ { { { [ 8 4 7 2 2 7 9 {.{.{..XXXXX.X.X#X$X*X=X%X4             ",
"                                [ oX}.}.%X&X$X$XXX|..X X$XoX|.{.3 ,           < , 7 9 {.XX#XXXXXXX#X%X-X%X4             ",
"                                4 }.2 8 &X%XoXoX XoX#X&X&X$X}.5               o , , , 9 .XoXXX.XXX#X*X-X$X4             ",
"                                4 {., 3 >X%X&XXXXXoX&X:X*X$X4                   , , , 7 .X+X+X.X|.#X*X=X X3             ",
"                                4 }.3 7 ;X:X&XoXXX$X=X:X*X}.2                   , 7 , , }.+X+X#X|.oX*X*X X2             ",
"                                  }.8 2 +X<X%XoXXX&X:X:X&X!.                    8 9 , , {.+X>X#X X X$X*X X,             ",
"                                  }.{.7 |.<X:X+XXX,X>X:X&X8                     {.{.7 , {.%X;X+X|.XX$X&XOX,             ",
"                                  !.{.7 {.<X:X+XOX#X%X:X&X{.                    !.!.9 1 !.>X:X>X.X|.oX+X{.1             ",
"                                  2X'.6 !.1X>XoXOX.X#X#X,X!.>                   4X`.].~._.uXaX[.[.[.[.'.`.].            ",
"                                  4X7X/./.uXuXeX'.'.'.eXwX7X/.                  5X8X6X_.3XiXtXrX7X7X0XrX0X(.            ",
"                                  4X9X).).sXfXtXqX7X0XpXdXrX(.                  5X9X3X_.3XtXtXrX0X0XrXpXrX(.            ",
"                                  4X9X)./.sXfXiXqXqX0XdXdXiX).                  2X3X_._.6XdXdXiX0XqXrXrX0X(.            ",
"                                  2X5X)./.tXfXdXqX8X0XtXdXiX_.                    /./.~.).yXdXiX0XqX7X7X_.].            ",
"                                    /.~.~.yXfXdX0X7XqXrXpXpX_.                            ).5XrX7X_.(.~.^.              ",
"                                          2XsXdX0X7X7X8X6X6X/.                                  ~.                      ",
"                                            ).4X_.).(.(./.                                                              ",
"                                                                                                                        ",
"                                                                                                                        "
};
